<svg xmlns="http://www.w3.org/2000/svg" xmlns:xlink="http://www.w3.org/1999/xlink" xmlns:lucid="lucid" width="2830.55" height="2803.03"><g transform="translate(1189.5510125664882 2302.0268398269436)" lucid:page-tab-id="0_0"><path d="M-1500-2500h3500V500h-3500z" fill="#fff"/><path d="M-320-2075a5 5 0 0 1 5-5H73.97a5 5 0 0 1 5 5v177.28a5 5 0 0 1-5 5H-315a5 5 0 0 1-5-5z" stroke="#000" stroke-opacity="0" stroke-width="2" fill="#113667"/><use xlink:href="#a" transform="matrix(1,0,0,1,-315,-2075) translate(90.87037037037035 98.29166666666667)"/><path d="M-147.46-1700.2h-1v-63.12h1zm27.45-176.5l-.08.84-.2.84-.33.8-.46.73-.56.67-.66.56-.74.45-.8.33-.83.2-.84.08h-17.44l-.72.06-.7.16-.64.27-.6.37-.54.46-.46.54-.37.6-.27.65-.16.68-.06.72v26.04h-1v-26.08l.06-.84.2-.84.34-.8.45-.73.55-.66.66-.57.74-.45.8-.33.84-.2.84-.07h17.45l.72-.06.68-.16.65-.27.6-.38.54-.46.46-.54.37-.6.27-.65.16-.7.06-.7v-15.5h1z" stroke="#333" stroke-width=".05" fill="#333"/><path d="M-120-1892.2h-1v-.52h1z" fill="#333"/><path d="M-120-1892.18h-1.04v-.56h1.05zm-1-.5v.45h.96v-.46z" stroke="#333" stroke-width=".05" fill="#333"/><path d="M-147.96-1685.43l-4.64-14.27h9.27z" fill="#333"/><path d="M-147.96-1683.8l-5.32-16.4h10.64zm-3.95-15.4l3.94 12.15 3.95-12.15z" stroke="#333" stroke-width=".05" fill="#333"/><use xlink:href="#b" transform="matrix(1,0,0,1,-192.7148436626893,-1840.6566379888038) translate(0.005000000000002558 51.55555555555546)"/><use xlink:href="#c" transform="matrix(1,0,0,1,-192.7148436626893,-1840.6566379888038) translate(53.7087037037036 51.55555555555546)"/><path d="M-152.13-1680.55a7.52 7.52 0 0 1 8.33 0l257.17 171.04a3.33 3.33 0 0 1 0 5.53l-257.17 171.04a7.52 7.52 0 0 1-8.32 0l-257.18-171.04a3.33 3.33 0 0 1 0-5.54z" stroke="#225798" stroke-width="4" fill="#fff"/><use xlink:href="#d" transform="matrix(1,0,0,1,-409.0204225477593,-1678.8816277056262) translate(203.6438888888889 182.88020833333331)"/><path d="M320-1498.02a5 5 0 0 1 5-5h470a5 5 0 0 1 5 5v162.86a5 5 0 0 1-5 5H325a5 5 0 0 1-5-5z" stroke="#000" stroke-opacity="0" stroke-width="2" fill="#225798"/><use xlink:href="#e" transform="matrix(1,0,0,1,325,-1498.0221277056264) translate(148.29012345679016 90.04861111111111)"/><path d="M218.93-1421.6l.06.7.15.7.27.65.37.6.45.54.54.45.6.37.64.26.7.17.7.06h80.18v1h-80.2l-.85-.06-.84-.2-.8-.33-.73-.44-.66-.56-.56-.66-.45-.74-.33-.8-.2-.83-.07-.84v-53.17h1zm-101.57-84.64v-1h50.46v1z" stroke="#333" stroke-width=".05" fill="#333"/><path d="M117.38-1506.24h-.56l.05-.5-.05-.5h.56z" fill="#333"/><path d="M117.4-1506.22h-.6l.04-.52-.05-.53h.6zm-.56-1l.05.48-.06.47h.5v-.95z" stroke="#333" stroke-width=".05" fill="#333"/><path d="M318.38-1416.6l-14.26 4.64v-9.27z" fill="#333"/><path d="M320-1416.6l-16.38 5.33v-10.65zm-15.38 3.95l12.14-3.94-12.14-3.94z" stroke="#333" stroke-width=".05" fill="#333"/><use xlink:href="#f" transform="matrix(1,0,0,1,167.81872903850518,-1538.741965367964) translate(0 42.66666666666663)"/><use xlink:href="#g" transform="matrix(1,0,0,1,167.81872903850518,-1538.741965367964) translate(44.44444444444441 42.66666666666663)"/><path d="M630.34-957.23a7.52 7.52 0 0 1 8.33 0L895.84-786.2a3.33 3.33 0 0 1 0 5.55L638.67-609.6a7.52 7.52 0 0 1-8.33 0L373.17-780.66a3.33 3.33 0 0 1 0-5.54z" stroke="#4397ff" stroke-width="4" fill="#fff"/><use xlink:href="#h" transform="matrix(1,0,0,1,373.4446693903541,-955.562) translate(211.8383333333333 182.9375)"/><path d="M-1168.55-2273.03a8 8 0 0 1 8-8H874.2a8 8 0 0 1 8 8v68.1a8 8 0 0 1-8 8h-2034.75a8 8 0 0 1-8-8z" stroke="#000" stroke-opacity="0" stroke-width="2" fill="#fff" fill-opacity="0"/><use xlink:href="#i" transform="matrix(1,0,0,1,-1164.5510125664882,-2277.0268398269436) translate(740.2199392361114 57.71342013888883)"/><use xlink:href="#j" transform="matrix(1,0,0,1,-1164.5510125664882,-2277.0268398269436) translate(1027.2090885416667 57.71342013888883)"/><use xlink:href="#k" transform="matrix(1,0,0,1,-1164.5510125664882,-2277.0268398269436) translate(1151.089296875 57.71342013888883)"/><path d="M-891.25-2199.66H627M-891.22-2199.66h-1.03M626.98-2199.66H628" stroke="#a9afb8" stroke-width="2" fill="none"/><path d="M79.97-1986.36H173a6 6 0 0 0 6-6V-2054a6 6 0 0 1 6-6h75.5" stroke="#5e5e5e" stroke-width="2" fill="none"/><path d="M80-1985.36h-1.03v-2H80z" stroke="#5e5e5e" stroke-width=".05" fill="#5e5e5e"/><path d="M275.76-2060l-14.26 4.64v-9.28z" stroke="#5e5e5e" stroke-width="2" fill="#5e5e5e"/><path d="M580-2060c0 44.18-67.16 80-150 80s-150-35.82-150-80 67.16-80 150-80 150 35.82 150 80z" stroke="#c92d39" stroke-width="2" fill="#fff"/><use xlink:href="#l" transform="matrix(1,0,0,1,285,-2135) translate(113.8938888888889 83.5625)"/><path d="M-321-1986.36h-152.5a6 6 0 0 1-6-6V-2034a6 6 0 0 0-6-6h-135" stroke="#5e5e5e" stroke-width="2" fill="none"/><path d="M-320-1985.36h-1.03v-2h1.03z" stroke="#5e5e5e" stroke-width=".05" fill="#5e5e5e"/><path d="M-635.76-2040l14.26-4.63v9.27z" stroke="#5e5e5e" stroke-width="2" fill="#5e5e5e"/><path d="M-640-2040c0 55.23-62.68 100-140 100s-140-44.77-140-100 62.68-100 140-100 140 44.77 140 100z" stroke="#c92d39" stroke-width="2" fill="#fff"/><use xlink:href="#m" transform="matrix(1,0,0,1,-915,-2135) translate(42.985026041666714 107.0876736111111)"/><path d="M79.77-1896.35h103.11a6 6 0 0 1 6 6v165.3a6 6 0 0 0 6 6h85.62" stroke="#5e5e5e" stroke-width="2" fill="none"/><path d="M79.8-1895.35h-1.44l.07-.1.3-.72.18-.77.04-.4h.86z" stroke="#5e5e5e" stroke-width=".05" fill="#5e5e5e"/><path d="M295.76-1719.06l-14.26 4.63v-9.27z" stroke="#5e5e5e" stroke-width="2" fill="#5e5e5e"/><path d="M620-1719.06c0 44.18-71.63 80-160 80s-160-35.82-160-80 71.63-80 160-80 160 35.82 160 80z" stroke="#c92d39" stroke-width="2" fill="#fff"/><use xlink:href="#n" transform="matrix(1,0,0,1,305,-1794.0605406705417) translate(48.45253086419758 85.34027777777777)"/><path d="M-321-1926.74h-152.5a6 6 0 0 0-6 6v241.88a6 6 0 0 1-6 6h-135" stroke="#5e5e5e" stroke-width="2" fill="none"/><path d="M-320-1925.74h-1.03v-2h1.03z" stroke="#5e5e5e" stroke-width=".05" fill="#5e5e5e"/><path d="M-635.76-1672.86l14.26-4.63v9.28z" stroke="#5e5e5e" stroke-width="2" fill="#5e5e5e"/><path d="M-640-1672.86c0 59.17-76.1 107.14-170 107.14s-170-47.96-170-107.14c0-59.17 76.1-107.14 170-107.14s170 47.97 170 107.14z" stroke="#c92d39" stroke-width="2" fill="#fff"/><use xlink:href="#o" transform="matrix(1,0,0,1,-975,-1775) translate(107.64814814814817 110.65277777777777)"/><path d="M730.72-1504.02v-65.12a6 6 0 0 1 6-6h463.78" stroke="#5e5e5e" stroke-width="2" fill="none"/><path d="M731.72-1503.02h-2v-1.03h2z" stroke="#5e5e5e" stroke-width=".05" fill="#5e5e5e"/><path d="M1215.76-1575.14l-14.26 4.64v-9.28z" stroke="#5e5e5e" stroke-width="2" fill="#5e5e5e"/><path d="M1620-1575.14c0 80-89.54 144.86-200 144.86s-200-64.86-200-144.86c0-80 89.54-144.86 200-144.86s200 64.86 200 144.86z" stroke="#c92d39" stroke-width="2" fill="#fff"/><use xlink:href="#p" transform="matrix(1,0,0,1,1225,-1715) translate(75.88271604938281 150.26388888888886)"/><use xlink:href="#q" transform="matrix(1,0,0,1,1225,-1715) translate(246.1111111111111 150.26388888888886)"/><path d="M371.9-1329.16V-1169a6 6 0 0 1-6 6H6a6 6 0 0 0-6 6v37.5" stroke="#5e5e5e" stroke-width="2" fill="none"/><path d="M372.9-1329.14h-2v-1.02h2z" stroke="#5e5e5e" stroke-width=".05" fill="#5e5e5e"/><path d="M0-1104.24l-4.63-14.26h9.27z" stroke="#5e5e5e" stroke-width="2" fill="#5e5e5e"/><path d="M180-990c0 60.75-80.6 110-180 110s-180-49.25-180-110 80.6-110 180-110 180 49.25 180 110z" stroke="#c92d39" stroke-width="2" fill="#fff"/><use xlink:href="#r" transform="matrix(1,0,0,1,-175,-1095) translate(107.17166666666672 117.86111111111109)"/><path d="M727-1329.16V-1176a6 6 0 0 0 6 6h347.5" stroke="#5e5e5e" stroke-width="2" fill="none"/><path d="M728-1329.14h-2v-1.02h2z" stroke="#5e5e5e" stroke-width=".05" fill="#5e5e5e"/><path d="M1095.76-1170l-14.26 4.63v-9.27z" stroke="#5e5e5e" stroke-width="2" fill="#5e5e5e"/><path d="M1440-1170c0 71.8-76.1 130-170 130s-170-58.2-170-130 76.1-130 170-130 170 58.2 170 130z" stroke="#c92d39" stroke-width="2" fill="#fff"/><use xlink:href="#s" transform="matrix(1,0,0,1,1105,-1295) translate(56.62962962962966 132.86111111111111)"/><path d="M634.5-961.5v-177.83a6 6 0 0 0-6-6H566a6 6 0 0 1-6-6v-160.33" stroke="#5e5e5e" stroke-width="2" fill="none"/><path d="M635.5-960.43l-1-.06-1 .07v-1.1h2z" stroke="#5e5e5e" stroke-width=".05" fill="#5e5e5e"/><path d="M560-1326.93l4.63 14.27h-9.26z" stroke="#5e5e5e" stroke-width="2" fill="#5e5e5e"/><use xlink:href="#t" transform="matrix(1,0,0,1,503.8696052791226,-1148.972548307831) translate(0.005000000000002558 35.55555555555554)"/><use xlink:href="#u" transform="matrix(1,0,0,1,503.8696052791226,-1148.972548307831) translate(37.042037037037026 35.55555555555554)"/><path d="M461.3-409H180v-2h281.3zm174.2-6.96l-.08 1.06-.26 1.06-.42 1.02-.57.94-.7.83-.85.72-.94.57-1 .42-1.08.26-1.06.08h-97.5v-2h97.42l.82-.06.77-.2.72-.3.67-.4.6-.5.5-.6.42-.67.3-.73.18-.76.06-.82v-189.3h2z" stroke="#5e5e5e" stroke-width=".05" fill="#5e5e5e"/><path d="M634.5-606.35l1-.06v1.07h-2v-1.08z" fill="#5e5e5e"/><path d="M634.5-606.38l1.03-.06v1.14h-2.05v-1.14zm-.97 1.03h1.95v-1.03l-.98.05-.97-.05z" stroke="#5e5e5e" stroke-width=".05" fill="#5e5e5e"/><path d="M179-405.37L164.74-410l14.26-4.63z" fill="#5e5e5e"/><path d="M180-404l-18.5-6 18.5-6zm-12.03-6l10.03 3.26v-6.52z" stroke="#5e5e5e" stroke-width=".05" fill="#5e5e5e"/><use xlink:href="#v" transform="matrix(1,0,0,1,461.3073367185683,-438) translate(0.005000000000002558 37.333333333333314)"/><use xlink:href="#w" transform="matrix(1,0,0,1,461.3073367185683,-438) translate(41.356851851851836 37.333333333333314)"/><path d="M-220-514a6 6 0 0 1 6-6h368a6 6 0 0 1 6 6v208a6 6 0 0 1-6 6h-368a6 6 0 0 1-6-6z" stroke="#5e5e5e" stroke-width="3" fill="#225798"/><use xlink:href="#x" transform="matrix(1,0,0,1,-208,-508) translate(95.25925925925932 110.04166666666663)"/><path d="M-119.25-522.5V-754a6 6 0 0 0-6-6H-400.5" stroke="#5e5e5e" stroke-width="2" fill="none"/><path d="M-118.25-521.5h-2v-1.03h2z" stroke="#5e5e5e" stroke-width=".05" fill="#5e5e5e"/><path d="M-415.76-760l14.26-4.63v9.26z" stroke="#5e5e5e" stroke-width="2" fill="#5e5e5e"/><path d="M-420-760c0 66.27-67.16 120-150 120s-150-53.73-150-120c0-66.27 67.16-120 150-120s150 53.73 150 120z" stroke="#c92d39" stroke-width="2" fill="#fff"/><use xlink:href="#y" transform="matrix(1,0,0,1,-715,-875) translate(37.31172839506189 127.13888888888883)"/><path d="M-30-297.5v111.75a6 6 0 0 0 6 6h298a6 6 0 0 1 6 6v94.25" stroke="#5e5e5e" stroke-width="2" fill="none"/><path d="M-29-297.47h-2v-1.03h2z" stroke="#5e5e5e" stroke-width=".05" fill="#5e5e5e"/><path d="M280-64.24l-4.63-14.26h9.26z" stroke="#5e5e5e" stroke-width="2" fill="#5e5e5e"/><path d="M420 60c0 66.27-62.68 120-140 120S140 126.27 140 60c0-66.27 62.68-120 140-120S420-6.27 420 60z" stroke="#c92d39" stroke-width="2" fill="#fff"/><use xlink:href="#z" transform="matrix(1,0,0,1,145,-55) translate(87.38888888888891 125.43749999999999)"/><path d="M-222.5-410h-211.75a6 6 0 0 1-6-6v-48a6 6 0 0 0-6-6H-640.5" stroke="#5e5e5e" stroke-width="2" fill="none"/><path d="M-221.5-409h-1.03v-2h1.03z" stroke="#5e5e5e" stroke-width=".05" fill="#5e5e5e"/><path d="M-655.76-470l14.26-4.63v9.26z" stroke="#5e5e5e" stroke-width="2" fill="#5e5e5e"/><path d="M-660-470c0 60.75-67.16 110-150 110s-150-49.25-150-110 67.16-110 150-110 150 49.25 150 110z" stroke="#c92d39" stroke-width="2" fill="#fff"/><use xlink:href="#A" transform="matrix(1,0,0,1,-955,-575) translate(50.079074074074136 117.86111111111109)"/><path d="M-221.5-302.27h-82.25a6 6 0 0 0-6 6V-96a6 6 0 0 1-6 6h-64.75" stroke="#5e5e5e" stroke-width="2" fill="none"/><path d="M-220.7-302.6l.63 1 .27.33h-1.7v-2h.53z" stroke="#5e5e5e" stroke-width=".05" fill="#5e5e5e"/><path d="M-395.76-90l14.26-4.64v9.28z" stroke="#5e5e5e" stroke-width="2" fill="#5e5e5e"/><path d="M-400-90c0 71.8-76.1 130-170 130S-740-18.2-740-90s76.1-130 170-130 170 58.2 170 130z" stroke="#c92d39" stroke-width="2" fill="#fff"/><use xlink:href="#B" transform="matrix(1,0,0,1,-735,-215) translate(77.53086419753089 137.11805555555554)"/><path d="M161.07-301.6h365.25a3.2 3.2 0 0 0 3.22-3.2 3.2 3.2 0 0 1 3.2-3.2H880.5" stroke="#5e5e5e" stroke-width="2" fill="none"/><path d="M161.1-300.6h-1.92l.13-.1.77-.9.6-1h.43z" stroke="#5e5e5e" stroke-width=".05" fill="#5e5e5e"/><path d="M895.76-308l-14.26 4.62v-9.27z" stroke="#5e5e5e" stroke-width="2" fill="#5e5e5e"/><path d="M1240-308c0 83.93-76.1 151.98-170 151.98s-170-68.05-170-152C900-391.94 976.1-460 1070-460s170 68.05 170 152z" stroke="#c92d39" stroke-width="2" fill="#fff"/><use xlink:href="#C" transform="matrix(1,0,0,1,905.0000000000001,-455) translate(74.20679012345687 155.73263888888886)"/><path d="M-112.47-297.5v191.75a6 6 0 0 1-6 6H-134a6 6 0 0 0-6 6V80.5" stroke="#5e5e5e" stroke-width="2" fill="none"/><path d="M-111.47-297.47h-2v-1.03h2z" stroke="#5e5e5e" stroke-width=".05" fill="#5e5e5e"/><path d="M-140 95.76l-4.63-14.26h9.26z" stroke="#5e5e5e" stroke-width="2" fill="#5e5e5e"/><path d="M40 210c0 60.75-80.6 110-180 110s-180-49.25-180-110 80.6-110 180-110S40 149.25 40 210z" stroke="#c92d39" stroke-width="2" fill="#fff"/><g><use xlink:href="#D" transform="matrix(1,0,0,1,-315,105) translate(18.11611111111109 114.85416666666667)"/><use xlink:href="#E" transform="matrix(1,0,0,1,-315,105) translate(189.8198148148148 114.85416666666667)"/></g><path d="M161.07-301.6H644a6 6 0 0 1 6 6v596.1" stroke="#5e5e5e" stroke-width="2" fill="none"/><path d="M161.1-300.6h-1.92l.13-.1.77-.9.6-1h.43z" stroke="#5e5e5e" stroke-width=".05" fill="#5e5e5e"/><path d="M650 315.76l-4.63-14.26h9.26z" stroke="#5e5e5e" stroke-width="2" fill="#5e5e5e"/><path d="M840 400c0 44.18-85.07 80-190 80s-190-35.82-190-80 85.07-80 190-80 190 35.82 190 80z" stroke="#c92d39" stroke-width="2" fill="#fff"/><g><use xlink:href="#F" transform="matrix(1,0,0,1,465,325) translate(25.375370370370383 84.85416666666667)"/></g><defs><path d="M115-194c55 1 70 41 70 98S169 2 115 4C84 4 66-9 55-30l1 105H24l-1-265h31l2 30c10-21 28-34 59-34zm-8 174c40 0 45-34 45-75s-6-73-45-74c-42 0-51 32-51 76 0 43 10 73 51 73" id="G"/><path d="M114-163C36-179 61-72 57 0H25l-1-190h30c1 12-1 29 2 39 6-27 23-49 58-41v29" id="H"/><path d="M100-194c62-1 85 37 85 99 1 63-27 99-86 99S16-35 15-95c0-66 28-99 85-99zM99-20c44 1 53-31 53-75 0-43-8-75-51-75s-53 32-53 75 10 74 51 75" id="I"/><path d="M85-194c31 0 48 13 60 33l-1-100h32l1 261h-30c-2-10 0-23-3-31C134-8 116 4 85 4 32 4 16-35 15-94c0-66 23-100 70-100zm9 24c-40 0-46 34-46 75 0 40 6 74 45 74 42 0 51-32 51-76 0-42-9-74-50-73" id="J"/><path d="M84 4C-5 8 30-112 23-190h32v120c0 31 7 50 39 49 72-2 45-101 50-169h31l1 190h-30c-1-10 1-25-2-33-11 22-28 36-60 37" id="K"/><path d="M96-169c-40 0-48 33-48 73s9 75 48 75c24 0 41-14 43-38l32 2c-6 37-31 61-74 61-59 0-76-41-82-99-10-93 101-131 147-64 4 7 5 14 7 22l-32 3c-4-21-16-35-41-35" id="L"/><path d="M59-47c-2 24 18 29 38 22v24C64 9 27 4 27-40v-127H5v-23h24l9-43h21v43h35v23H59v120" id="M"/><g id="a"><use transform="matrix(0.14814814814814817,0,0,0.14814814814814817,0,0)" xlink:href="#G"/><use transform="matrix(0.14814814814814817,0,0,0.14814814814814817,29.629629629629633,0)" xlink:href="#H"/><use transform="matrix(0.14814814814814817,0,0,0.14814814814814817,47.25925925925927,0)" xlink:href="#I"/><use transform="matrix(0.14814814814814817,0,0,0.14814814814814817,76.8888888888889,0)" xlink:href="#J"/><use transform="matrix(0.14814814814814817,0,0,0.14814814814814817,106.51851851851853,0)" xlink:href="#K"/><use transform="matrix(0.14814814814814817,0,0,0.14814814814814817,136.14814814814815,0)" xlink:href="#L"/><use transform="matrix(0.14814814814814817,0,0,0.14814814814814817,162.81481481481484,0)" xlink:href="#M"/><use transform="matrix(0.14814814814814817,0,0,0.14814814814814817,177.62962962962965,0)" xlink:href="#I"/></g><path fill="#333" d="M23 0v-37h61v-169l-59 37v-38l62-41h46v211h57V0H23" id="N"/><use transform="matrix(0.17901234567901197,0,0,0.17901234567901197,0,0)" xlink:href="#N" id="b"/><use transform="matrix(0.17901234567901197,0,0,0.17901234567901197,0,0)" xlink:href="#N" id="c"/><path fill="#333" d="M127-220V0H93v-220H8v-28h204v28h-85" id="O"/><path fill="#333" d="M24-231v-30h32v30H24zM24 0v-190h32V0H24" id="P"/><path fill="#333" d="M100-194c63 0 86 42 84 106H49c0 40 14 67 53 68 26 1 43-12 49-29l28 8c-11 28-37 45-77 45C44 4 14-33 15-96c1-61 26-98 85-98zm52 81c6-60-76-77-97-28-3 7-6 17-6 28h103" id="Q"/><path fill="#333" d="M117-194c89-4 53 116 60 194h-32v-121c0-31-8-49-39-48C34-167 62-67 57 0H25l-1-190h30c1 10-1 24 2 32 11-22 29-35 61-36" id="R"/><g id="d"><use transform="matrix(0.12962962962962957,0,0,0.12962962962962957,0,0)" xlink:href="#O"/><use transform="matrix(0.12962962962962957,0,0,0.12962962962962957,26.70370370370369,0)" xlink:href="#P"/><use transform="matrix(0.12962962962962957,0,0,0.12962962962962957,36.94444444444443,0)" xlink:href="#Q"/><use transform="matrix(0.12962962962962957,0,0,0.12962962962962957,62.87037037037034,0)" xlink:href="#R"/><use transform="matrix(0.12962962962962957,0,0,0.12962962962962957,88.79629629629625,0)" xlink:href="#Q"/></g><path fill="#fff" d="M212-179c-10-28-35-45-73-45-59 0-87 40-87 99 0 60 29 101 89 101 43 0 62-24 78-52l27 14C228-24 195 4 139 4 59 4 22-46 18-125c-6-104 99-153 187-111 19 9 31 26 39 46" id="S"/><path fill="#fff" d="M100-194c62-1 85 37 85 99 1 63-27 99-86 99S16-35 15-95c0-66 28-99 85-99zM99-20c44 1 53-31 53-75 0-43-8-75-51-75s-53 32-53 75 10 74 51 75" id="T"/><path fill="#fff" d="M210-169c-67 3-38 105-44 169h-31v-121c0-29-5-50-35-48C34-165 62-65 56 0H25l-1-190h30c1 10-1 24 2 32 10-44 99-50 107 0 11-21 27-35 58-36 85-2 47 119 55 194h-31v-121c0-29-5-49-35-48" id="U"/><path fill="#fff" d="M115-194c55 1 70 41 70 98S169 2 115 4C84 4 66-9 55-30l1 105H24l-1-265h31l2 30c10-21 28-34 59-34zm-8 174c40 0 45-34 45-75s-6-73-45-74c-42 0-51 32-51 76 0 43 10 73 51 73" id="V"/><path fill="#fff" d="M114-163C36-179 61-72 57 0H25l-1-190h30c1 12-1 29 2 39 6-27 23-49 58-41v29" id="W"/><path fill="#fff" d="M141-36C126-15 110 5 73 4 37 3 15-17 15-53c-1-64 63-63 125-63 3-35-9-54-41-54-24 1-41 7-42 31l-33-3c5-37 33-52 76-52 45 0 72 20 72 64v82c-1 20 7 32 28 27v20c-31 9-61-2-59-35zM48-53c0 20 12 33 32 33 41-3 63-29 60-74-43 2-92-5-92 41" id="X"/><g id="e"><use transform="matrix(0.13580246913580243,0,0,0.13580246913580243,0,0)" xlink:href="#S"/><use transform="matrix(0.13580246913580243,0,0,0.13580246913580243,35.17283950617283,0)" xlink:href="#T"/><use transform="matrix(0.13580246913580243,0,0,0.13580246913580243,62.333333333333314,0)" xlink:href="#U"/><use transform="matrix(0.13580246913580243,0,0,0.13580246913580243,102.93827160493825,0)" xlink:href="#V"/><use transform="matrix(0.13580246913580243,0,0,0.13580246913580243,130.09876543209873,0)" xlink:href="#W"/><use transform="matrix(0.13580246913580243,0,0,0.13580246913580243,146.2592592592592,0)" xlink:href="#X"/></g><use transform="matrix(0.14814814814814803,0,0,0.14814814814814803,0,0)" xlink:href="#N" id="f"/><path fill="#333" d="M135-194c87-1 58 113 63 194h-50c-7-57 23-157-34-157-59 0-34 97-39 157H25l-1-190h47c2 12-1 28 3 38 12-26 28-41 61-42" id="Y"/><use transform="matrix(0.14814814814814803,0,0,0.14814814814814803,0,0)" xlink:href="#Y" id="g"/><g id="h"><use transform="matrix(0.1111111111111111,0,0,0.1111111111111111,0,0)" xlink:href="#O"/><use transform="matrix(0.1111111111111111,0,0,0.1111111111111111,22.88888888888889,0)" xlink:href="#P"/><use transform="matrix(0.1111111111111111,0,0,0.1111111111111111,31.666666666666664,0)" xlink:href="#Q"/><use transform="matrix(0.1111111111111111,0,0,0.1111111111111111,53.888888888888886,0)" xlink:href="#R"/><use transform="matrix(0.1111111111111111,0,0,0.1111111111111111,76.11111111111111,0)" xlink:href="#Q"/></g><path d="M651-670c-28-91-69-228-123-411-28 91-70 228-125 411h248zM849 0L698-503H353C289-288 238-121 201 0H29l407-1357h185L1027 0H849" id="Z"/><path d="M878-484c0-170-176-342-346-342-173 0-309 165-309 342 0 174 142 340 314 340 171 0 341-169 341-340zm165 0c0 259-247 505-506 505-129 0-236-50-319-149V0H51v-1357h167v515c79-99 183-149 314-149 260 0 511 247 511 507" id="aa"/><path d="M484-144c91 0 275-43 275-120v-184c-54 18-283 13-339 27-84 21-172 73-172 157 0 80 79 120 236 120zm27-847c168 0 413 106 413 260v563c0 15 16 23 48 26-4 64-6 118-6 163-81-4-138-29-172-76-80 51-181 76-304 76C213 21 75-75 75-266c0-155 132-276 270-302-15-8 340-16 395-49 13-7 20-20 21-39-1 24-2 8-2-49 0-71-154-124-234-124-152 0-248 58-288 173L79-690c32-191 203-301 432-301" id="ab"/><path d="M535-805c-177 0-317 145-317 321V0H51v-970h167v134c85-89 189-134 310-134h218v218c-83-35-153-53-211-53" id="ac"/><path d="M838-484c0-173-151-342-322-342-177 0-319 167-319 342 0 176 146 340 319 340 171 0 322-167 322-340zm-807 0c0-265 224-507 485-507 260 0 487 246 487 507 0 260-229 505-487 505C255 21 31-224 31-484" id="ad"/><path d="M395 0C260 4 152-110 152-245v-560H6v-165c76 0 121-15 136-44 7-13 10-65 10-156h165v200h235v165H317v560c-9 115 138 72 235 80V0H395" id="ae"/><path d="M816-616c-46-109-154-210-294-210-133 0-258 109-301 210h595zM31-484c0-260 230-507 491-507 282 0 495 254 487 541H196c10 148 163 311 326 306 147-5 277-104 326-215l166 28C947-150 753 16 522 21 260 27 31-223 31-484" id="af"/><path d="M68-580C-45-823 215-987 454-987c229 0 422 106 446 301l-161 34c-17-73-62-125-139-149-121-38-274-36-352 29-25 21-38 44-38 71 0 66 59 112 178 131 86 13 176 12 261 32 115 27 244 96 244 266 0 81-40 141-102 191C645 38 359 49 192-49 101-102 48-180 33-282l163-35c5 118 149 172 287 172 93 0 238-46 238-127 0-45-37-74-103-103-48-21-337-53-386-71-61-22-144-92-164-134" id="ag"/><g id="i"><use transform="matrix(0.029079861111111077,0,0,0.029079861111111077,0,0)" xlink:href="#Z"/><use transform="matrix(0.029079861111111077,0,0,0.029079861111111077,34.31423611111107,0)" xlink:href="#aa"/><use transform="matrix(0.029079861111111077,0,0,0.029079861111111077,68.2795138888888,0)" xlink:href="#ab"/><use transform="matrix(0.029079861111111077,0,0,0.029079861111111077,100.15104166666654,0)" xlink:href="#ac"/><use transform="matrix(0.029079861111111077,0,0,0.029079861111111077,126.64279513888874,0)" xlink:href="#ac"/><use transform="matrix(0.029079861111111077,0,0,0.029079861111111077,149.17968749999983,0)" xlink:href="#ad"/><use transform="matrix(0.029079861111111077,0,0,0.029079861111111077,182.76692708333312,0)" xlink:href="#ae"/><use transform="matrix(0.029079861111111077,0,0,0.029079861111111077,201.43619791666643,0)" xlink:href="#af"/><use transform="matrix(0.029079861111111077,0,0,0.029079861111111077,235.02343749999972,0)" xlink:href="#ag"/></g><path d="M860-484c0-175-137-342-310-342-172 0-345 169-345 342s167 340 340 340c172 0 315-166 315-340zm-820 0c0-260 250-507 510-507 131 0 236 50 315 149v-515h167V0H865v-128C782-29 675 21 545 21 285 21 40-224 40-484" id="ah"/><path d="M530-826c-179 0-312 160-312 342V0H53v-970h165v127c78-99 182-148 312-148 289 0 456 203 456 499V0H819v-484c2-203-95-342-289-342" id="ai"/><g id="j"><use transform="matrix(0.029079861111111077,0,0,0.029079861111111077,0,0)" xlink:href="#ah"/><use transform="matrix(0.029079861111111077,0,0,0.029079861111111077,35.012152777777736,0)" xlink:href="#ad"/><use transform="matrix(0.029079861111111077,0,0,0.029079861111111077,68.59939236111103,0)" xlink:href="#ai"/></g><path d="M812-932c0-167-190-264-368-264H218v528h244c168 4 350-105 350-264zm166 0c-6 217-176 357-367 405L904 0H711L431-503H218V0H51v-1357h393c258-7 540 177 534 425" id="aj"/><path d="M470-144c172 0 264-158 264-340v-486h165V0H734v-96C656-18 568 21 470 21 202 21 46-186 46-463v-507h165v507c-4 167 99 319 259 319" id="ak"/><path d="M439-1189c-122 0-183 48-183 143v76h183v165H256V0H89v-805H13v-165h76c-8-144 16-237 103-308 64-53 146-79 247-79v168" id="al"/><path d="M233-1172c-50 0-96-44-96-94 0-49 46-93 96-93s96 43 96 93c0 52-44 94-96 94zM26-970h289V0H150v-805H26v-165" id="am"/><g id="k"><use transform="matrix(0.029079861111111077,0,0,0.029079861111111077,0,0)" xlink:href="#aj"/><use transform="matrix(0.029079861111111077,0,0,0.029079861111111077,32.773003472222186,0)" xlink:href="#ak"/><use transform="matrix(0.029079861111111077,0,0,0.029079861111111077,63.88845486111105,0)" xlink:href="#al"/><use transform="matrix(0.029079861111111077,0,0,0.029079861111111077,78.86458333333324,0)" xlink:href="#am"/><use transform="matrix(0.029079861111111077,0,0,0.029079861111111077,91.368923611111,0)" xlink:href="#ai"/><use transform="matrix(0.029079861111111077,0,0,0.029079861111111077,124.72352430555542,0)" xlink:href="#ad"/></g><path fill="#333" d="M135-143c-3-34-86-38-87 0 15 53 115 12 119 90S17 21 10-45l28-5c4 36 97 45 98 0-10-56-113-15-118-90-4-57 82-63 122-42 12 7 21 19 24 35" id="an"/><path fill="#333" d="M143 0L79-87 56-68V0H24v-261h32v163l83-92h37l-77 82L181 0h-38" id="ao"/><path fill="#333" d="M84 4C-5 8 30-112 23-190h32v120c0 31 7 50 39 49 72-2 45-101 50-169h31l1 190h-30c-1-10 1-25-2-33-11 22-28 36-60 37" id="ap"/><g id="l"><use transform="matrix(0.1111111111111111,0,0,0.1111111111111111,0,0)" xlink:href="#an"/><use transform="matrix(0.1111111111111111,0,0,0.1111111111111111,20,0)" xlink:href="#ao"/><use transform="matrix(0.1111111111111111,0,0,0.1111111111111111,40,0)" xlink:href="#ap"/></g><path fill="#081f3b" d="M862-668c-1-164-37-264-184-264-95 0-198 59-307 178V0H215v-1042h156v153c112-119 230-178 354-178 195 0 293 118 293 354V0H862v-668" id="aq"/><path fill="#081f3b" d="M145-522c0-307 172-545 469-545 296 0 469 239 469 545 0 308-172 549-469 549-298 0-469-240-469-549zm164 2c0 210 103 411 305 411 199 0 306-205 306-411 0-217-100-412-306-412-208 0-305 192-305 412" id="ar"/><path fill="#081f3b" d="M686-885c46-86 118-182 225-182 126 0 189 113 189 338V0H944v-684c6-255-92-321-196-162-38 57-56 88-56 94V0H537v-684c6-254-92-321-195-162-38 57-57 88-57 94V0H129v-1042h150v157c46-86 117-182 225-182 99 0 163 89 182 182" id="as"/><path fill="#081f3b" d="M686 27c-142 0-259-82-315-177V0H215v-1411h156v504c60-87 186-160 327-160 264 0 385 247 385 530S949 27 686 27zm234-555c0-209-79-404-269-404-110 0-203 60-280 180v433c47 96 147 206 274 206 185 0 275-214 275-415" id="at"/><path fill="#081f3b" d="M793-909c-150 0-257 142-312 235V0H326v-1042h155v211c120-239 312-290 553-183l-63 150c-69-30-128-45-178-45" id="au"/><path fill="#081f3b" d="M627-1067c255 1 431 226 422 502v49H334c-8 217 149 407 354 407 95 0 192-17 293-51l27 125C916 6 809 27 686 27c-314 0-516-228-516-551 0-303 173-543 457-543zm252 424c8-145-114-289-246-289-166 0-282 128-289 289h535" id="av"/><g id="m"><use transform="matrix(0.024956597222222213,0,0,0.024956597222222213,0,0)" xlink:href="#aq"/><use transform="matrix(0.024956597222222213,0,0,0.024956597222222213,30.6716579861111,0)" xlink:href="#ar"/><use transform="matrix(0.024956597222222213,0,0,0.024956597222222213,61.3433159722222,0)" xlink:href="#as"/><use transform="matrix(0.024956597222222213,0,0,0.024956597222222213,92.0149739583333,0)" xlink:href="#at"/><use transform="matrix(0.024956597222222213,0,0,0.024956597222222213,122.6866319444444,0)" xlink:href="#au"/><use transform="matrix(0.024956597222222213,0,0,0.024956597222222213,153.3582899305555,0)" xlink:href="#av"/></g><path fill="#333" d="M85-194c31 0 48 13 60 33l-1-100h32l1 261h-30c-2-10 0-23-3-31C134-8 116 4 85 4 32 4 16-35 15-94c0-66 23-100 70-100zm9 24c-40 0-46 34-46 75 0 40 6 74 45 74 42 0 51-32 51-76 0-42-9-74-50-73" id="aw"/><path fill="#333" d="M96-169c-40 0-48 33-48 73s9 75 48 75c24 0 41-14 43-38l32 2c-6 37-31 61-74 61-59 0-76-41-82-99-10-93 101-131 147-64 4 7 5 14 7 22l-32 3c-4-21-16-35-41-35" id="ax"/><path fill="#333" d="M114-163C36-179 61-72 57 0H25l-1-190h30c1 12-1 29 2 39 6-27 23-49 58-41v29" id="ay"/><path fill="#333" d="M115-194c55 1 70 41 70 98S169 2 115 4C84 4 66-9 55-30l1 105H24l-1-265h31l2 30c10-21 28-34 59-34zm-8 174c40 0 45-34 45-75s-6-73-45-74c-42 0-51 32-51 76 0 43 10 73 51 73" id="az"/><path fill="#333" d="M100-194c62-1 85 37 85 99 1 63-27 99-86 99S16-35 15-95c0-66 28-99 85-99zM99-20c44 1 53-31 53-75 0-43-8-75-51-75s-53 32-53 75 10 74 51 75zM76-211c8-23 27-35 38-54h36v5l-58 49H76" id="aA"/><g id="n"><use transform="matrix(0.1172839506172839,0,0,0.1172839506172839,0,0)" xlink:href="#aw"/><use transform="matrix(0.1172839506172839,0,0,0.1172839506172839,23.45679012345678,0)" xlink:href="#Q"/><use transform="matrix(0.1172839506172839,0,0,0.1172839506172839,46.91358024691356,0)" xlink:href="#an"/><use transform="matrix(0.1172839506172839,0,0,0.1172839506172839,68.02469135802467,0)" xlink:href="#ax"/><use transform="matrix(0.1172839506172839,0,0,0.1172839506172839,89.13580246913577,0)" xlink:href="#ay"/><use transform="matrix(0.1172839506172839,0,0,0.1172839506172839,103.09259259259255,0)" xlink:href="#P"/><use transform="matrix(0.1172839506172839,0,0,0.1172839506172839,112.35802469135798,0)" xlink:href="#az"/><use transform="matrix(0.1172839506172839,0,0,0.1172839506172839,135.81481481481475,0)" xlink:href="#ax"/><use transform="matrix(0.1172839506172839,0,0,0.1172839506172839,156.92592592592587,0)" xlink:href="#P"/><use transform="matrix(0.1172839506172839,0,0,0.1172839506172839,166.19135802469128,0)" xlink:href="#aA"/><use transform="matrix(0.1172839506172839,0,0,0.1172839506172839,189.64814814814807,0)" xlink:href="#R"/></g><path fill="#333" d="M100-194c62-1 85 37 85 99 1 63-27 99-86 99S16-35 15-95c0-66 28-99 85-99zM99-20c44 1 53-31 53-75 0-43-8-75-51-75s-53 32-53 75 10 74 51 75" id="aB"/><g id="o"><use transform="matrix(0.1172839506172839,0,0,0.1172839506172839,0,0)" xlink:href="#az"/><use transform="matrix(0.1172839506172839,0,0,0.1172839506172839,23.45679012345678,0)" xlink:href="#ay"/><use transform="matrix(0.1172839506172839,0,0,0.1172839506172839,37.41358024691357,0)" xlink:href="#Q"/><use transform="matrix(0.1172839506172839,0,0,0.1172839506172839,60.87037037037036,0)" xlink:href="#ax"/><use transform="matrix(0.1172839506172839,0,0,0.1172839506172839,81.98148148148145,0)" xlink:href="#P"/><use transform="matrix(0.1172839506172839,0,0,0.1172839506172839,91.24691358024688,0)" xlink:href="#aB"/></g><path fill="#333" d="M101-234c-31-9-42 10-38 44h38v23H63V0H32v-167H5v-23h27c-7-52 17-82 69-68v24" id="aC"/><path fill="#333" d="M141-36C126-15 110 5 73 4 37 3 15-17 15-53c-1-64 63-63 125-63 3-35-9-54-41-54-24 1-41 7-42 31l-33-3c5-37 33-52 76-52 45 0 72 20 72 64v82c-1 20 7 32 28 27v20c-31 9-61-2-59-35zM48-53c0 20 12 33 32 33 41-3 63-29 60-74-43 2-92-5-92 41" id="aD"/><path fill="#333" d="M59-47c-2 24 18 29 38 22v24C64 9 27 4 27-40v-127H5v-23h24l9-43h21v43h35v23H59v120" id="aE"/><g id="p"><use transform="matrix(0.1419753086419752,0,0,0.1419753086419752,0,0)" xlink:href="#aC"/><use transform="matrix(0.1419753086419752,0,0,0.1419753086419752,14.19753086419752,0)" xlink:href="#aD"/><use transform="matrix(0.1419753086419752,0,0,0.1419753086419752,42.59259259259256,0)" xlink:href="#ax"/><use transform="matrix(0.1419753086419752,0,0,0.1419753086419752,68.1481481481481,0)" xlink:href="#aE"/><use transform="matrix(0.1419753086419752,0,0,0.1419753086419752,82.34567901234561,0)" xlink:href="#ap"/><use transform="matrix(0.1419753086419752,0,0,0.1419753086419752,110.74074074074065,0)" xlink:href="#ay"/><use transform="matrix(0.1419753086419752,0,0,0.1419753086419752,127.6358024691357,0)" xlink:href="#aD"/></g><path fill="#333" d="M-5 72V49h209v23H-5" id="aF"/><g id="q"><use transform="matrix(0.1419753086419752,0,0,0.1419753086419752,0,0)" xlink:href="#aF"/><use transform="matrix(0.1419753086419752,0,0,0.1419753086419752,28.39506172839504,0)" xlink:href="#P"/><use transform="matrix(0.1419753086419752,0,0,0.1419753086419752,39.61111111111108,0)" xlink:href="#aw"/></g><path fill="#333" d="M63-220v92h138v28H63V0H30v-248h175v28H63" id="aG"/><path fill="#333" d="M106-169C34-169 62-67 57 0H25v-261h32l-1 103c12-21 28-36 61-36 89 0 53 116 60 194h-32v-121c2-32-8-49-39-48" id="aH"/><g id="r"><use transform="matrix(0.13580246913580238,0,0,0.13580246913580238,0,0)" xlink:href="#aG"/><use transform="matrix(0.13580246913580238,0,0,0.13580246913580238,29.74074074074072,0)" xlink:href="#Q"/><use transform="matrix(0.13580246913580238,0,0,0.13580246913580238,56.9012345679012,0)" xlink:href="#ax"/><use transform="matrix(0.13580246913580238,0,0,0.13580246913580238,81.34567901234563,0)" xlink:href="#aH"/><use transform="matrix(0.13580246913580238,0,0,0.13580246913580238,108.5061728395061,0)" xlink:href="#aD"/></g><path fill="#333" d="M212-179c-10-28-35-45-73-45-59 0-87 40-87 99 0 60 29 101 89 101 43 0 62-24 78-52l27 14C228-24 195 4 139 4 59 4 22-46 18-125c-6-104 99-153 187-111 19 9 31 26 39 46" id="aI"/><path fill="#333" d="M24 0v-261h32V0H24" id="aJ"/><g id="s"><use transform="matrix(0.13580246913580243,0,0,0.13580246913580243,0,0)" xlink:href="#aI"/><use transform="matrix(0.13580246913580243,0,0,0.13580246913580243,35.17283950617283,0)" xlink:href="#aJ"/><use transform="matrix(0.13580246913580243,0,0,0.13580246913580243,45.90123456790122,0)" xlink:href="#P"/><use transform="matrix(0.13580246913580243,0,0,0.13580246913580243,56.62962962962961,0)" xlink:href="#Q"/><use transform="matrix(0.13580246913580243,0,0,0.13580246913580243,83.7901234567901,0)" xlink:href="#R"/><use transform="matrix(0.13580246913580243,0,0,0.13580246913580243,110.95061728395058,0)" xlink:href="#aE"/><use transform="matrix(0.13580246913580243,0,0,0.13580246913580243,124.53086419753082,0)" xlink:href="#Q"/><use transform="matrix(0.13580246913580243,0,0,0.13580246913580243,151.6913580246913,0)" xlink:href="#aF"/><use transform="matrix(0.13580246913580243,0,0,0.13580246913580243,178.85185185185182,0)" xlink:href="#P"/><use transform="matrix(0.13580246913580243,0,0,0.13580246913580243,189.5802469135802,0)" xlink:href="#aw"/></g><use transform="matrix(0.12345679012345674,0,0,0.12345679012345674,0,0)" xlink:href="#N" id="t"/><use transform="matrix(0.12345679012345674,0,0,0.12345679012345674,0,0)" xlink:href="#Y" id="u"/><use transform="matrix(0.12962962962962957,0,0,0.12962962962962957,0,0)" xlink:href="#Y" id="v"/><use transform="matrix(0.12962962962962957,0,0,0.12962962962962957,0,0)" xlink:href="#Y" id="w"/><g id="x"><use transform="matrix(0.14814814814814803,0,0,0.14814814814814803,0,0)" xlink:href="#aI"/><use transform="matrix(0.14814814814814803,0,0,0.14814814814814803,38.37037037037034,0)" xlink:href="#aJ"/><use transform="matrix(0.14814814814814803,0,0,0.14814814814814803,50.07407407407403,0)" xlink:href="#P"/><use transform="matrix(0.14814814814814803,0,0,0.14814814814814803,61.77777777777773,0)" xlink:href="#Q"/><use transform="matrix(0.14814814814814803,0,0,0.14814814814814803,91.40740740740733,0)" xlink:href="#R"/><use transform="matrix(0.14814814814814803,0,0,0.14814814814814803,121.03703703703694,0)" xlink:href="#aE"/><use transform="matrix(0.14814814814814803,0,0,0.14814814814814803,135.85185185185173,0)" xlink:href="#Q"/></g><g id="y"><use transform="matrix(0.1419753086419751,0,0,0.1419753086419751,0,0)" xlink:href="#ax"/><use transform="matrix(0.1419753086419751,0,0,0.1419753086419751,25.555555555555518,0)" xlink:href="#aJ"/><use transform="matrix(0.1419753086419751,0,0,0.1419753086419751,36.77160493827155,0)" xlink:href="#P"/><use transform="matrix(0.1419753086419751,0,0,0.1419753086419751,47.98765432098759,0)" xlink:href="#Q"/><use transform="matrix(0.1419753086419751,0,0,0.1419753086419751,76.38271604938261,0)" xlink:href="#R"/><use transform="matrix(0.1419753086419751,0,0,0.1419753086419751,104.77777777777763,0)" xlink:href="#aE"/><use transform="matrix(0.1419753086419751,0,0,0.1419753086419751,118.97530864197513,0)" xlink:href="#Q"/><use transform="matrix(0.1419753086419751,0,0,0.1419753086419751,147.37037037037015,0)" xlink:href="#aF"/><use transform="matrix(0.1419753086419751,0,0,0.1419753086419751,175.7654320987652,0)" xlink:href="#P"/><use transform="matrix(0.1419753086419751,0,0,0.1419753086419751,186.9814814814812,0)" xlink:href="#aw"/></g><path fill="#333" d="M210-169c-67 3-38 105-44 169h-31v-121c0-29-5-50-35-48C34-165 62-65 56 0H25l-1-190h30c1 10-1 24 2 32 10-44 99-50 107 0 11-21 27-35 58-36 85-2 47 119 55 194h-31v-121c0-29-5-49-35-48" id="aK"/><g id="z"><use transform="matrix(0.11111111111111108,0,0,0.11111111111111108,0,0)" xlink:href="#Q"/><use transform="matrix(0.11111111111111108,0,0,0.11111111111111108,22.222222222222214,0)" xlink:href="#aK"/><use transform="matrix(0.11111111111111108,0,0,0.11111111111111108,55.44444444444443,0)" xlink:href="#aD"/><use transform="matrix(0.11111111111111108,0,0,0.11111111111111108,77.66666666666664,0)" xlink:href="#P"/><use transform="matrix(0.11111111111111108,0,0,0.11111111111111108,86.44444444444441,0)" xlink:href="#aJ"/></g><path fill="#333" d="M115-194c53 0 69 39 70 98 0 66-23 100-70 100C84 3 66-7 56-30L54 0H23l1-261h32v101c10-23 28-34 59-34zm-8 174c40 0 45-34 45-75 0-40-5-75-45-74-42 0-51 32-51 76 0 43 10 73 51 73" id="aL"/><g id="A"><use transform="matrix(0.13580246913580238,0,0,0.13580246913580238,0,0)" xlink:href="#R"/><use transform="matrix(0.13580246913580238,0,0,0.13580246913580238,27.160493827160476,0)" xlink:href="#aB"/><use transform="matrix(0.13580246913580238,0,0,0.13580246913580238,54.32098765432095,0)" xlink:href="#aK"/><use transform="matrix(0.13580246913580238,0,0,0.13580246913580238,94.92592592592587,0)" xlink:href="#aL"/><use transform="matrix(0.13580246913580238,0,0,0.13580246913580238,122.08641975308636,0)" xlink:href="#ay"/><use transform="matrix(0.13580246913580238,0,0,0.13580246913580238,138.24691358024683,0)" xlink:href="#Q"/><use transform="matrix(0.13580246913580238,0,0,0.13580246913580238,165.4074074074073,0)" xlink:href="#an"/></g><g id="B"><use transform="matrix(0.12345679012345674,0,0,0.12345679012345674,0,0)" xlink:href="#aD"/><use transform="matrix(0.12345679012345674,0,0,0.12345679012345674,24.691358024691347,0)" xlink:href="#az"/><use transform="matrix(0.12345679012345674,0,0,0.12345679012345674,49.382716049382694,0)" xlink:href="#Q"/><use transform="matrix(0.12345679012345674,0,0,0.12345679012345674,74.07407407407405,0)" xlink:href="#aJ"/><use transform="matrix(0.12345679012345674,0,0,0.12345679012345674,83.82716049382714,0)" xlink:href="#aJ"/><use transform="matrix(0.12345679012345674,0,0,0.12345679012345674,93.58024691358023,0)" xlink:href="#P"/><use transform="matrix(0.12345679012345674,0,0,0.12345679012345674,103.33333333333331,0)" xlink:href="#aw"/><use transform="matrix(0.12345679012345674,0,0,0.12345679012345674,128.02469135802465,0)" xlink:href="#aB"/><use transform="matrix(0.12345679012345674,0,0,0.12345679012345674,152.716049382716,0)" xlink:href="#an"/></g><path fill="#333" d="M100-194c63 0 86 42 84 106H49c0 40 14 67 53 68 26 1 43-12 49-29l28 8c-11 28-37 45-77 45C44 4 14-33 15-96c1-61 26-98 85-98zm52 81c6-60-76-77-97-28-3 7-6 17-6 28h103zm-74-98c8-23 27-35 38-54h36v5l-58 49H78" id="aM"/><g id="C"><use transform="matrix(0.1419753086419752,0,0,0.1419753086419752,0,0)" xlink:href="#aE"/><use transform="matrix(0.1419753086419752,0,0,0.1419753086419752,14.19753086419752,0)" xlink:href="#Q"/><use transform="matrix(0.1419753086419752,0,0,0.1419753086419752,42.59259259259256,0)" xlink:href="#aJ"/><use transform="matrix(0.1419753086419752,0,0,0.1419753086419752,53.8086419753086,0)" xlink:href="#aM"/><use transform="matrix(0.1419753086419752,0,0,0.1419753086419752,82.20370370370364,0)" xlink:href="#aC"/><use transform="matrix(0.1419753086419752,0,0,0.1419753086419752,96.40123456790116,0)" xlink:href="#aB"/><use transform="matrix(0.1419753086419752,0,0,0.1419753086419752,124.79629629629619,0)" xlink:href="#R"/><use transform="matrix(0.1419753086419752,0,0,0.1419753086419752,153.19135802469123,0)" xlink:href="#aB"/></g><path fill="#333" d="M177-190C167-65 218 103 67 71c-23-6-38-20-44-43l32-5c15 47 100 32 89-28v-30C133-14 115 1 83 1 29 1 15-40 15-95c0-56 16-97 71-98 29-1 48 16 59 35 1-10 0-23 2-32h30zM94-22c36 0 50-32 50-73 0-42-14-75-50-75-39 0-46 34-46 75s6 73 46 73" id="aN"/><g id="D"><use transform="matrix(0.14814814814814817,0,0,0.14814814814814817,0,0)" xlink:href="#ax"/><use transform="matrix(0.14814814814814817,0,0,0.14814814814814817,26.66666666666667,0)" xlink:href="#aA"/><use transform="matrix(0.14814814814814817,0,0,0.14814814814814817,56.296296296296305,0)" xlink:href="#aw"/><use transform="matrix(0.14814814814814817,0,0,0.14814814814814817,85.92592592592594,0)" xlink:href="#P"/><use transform="matrix(0.14814814814814817,0,0,0.14814814814814817,97.62962962962965,0)" xlink:href="#aN"/><use transform="matrix(0.14814814814814817,0,0,0.14814814814814817,127.25925925925928,0)" xlink:href="#aB"/></g><g id="E"><use transform="matrix(0.14814814814814817,0,0,0.14814814814814817,0,0)" xlink:href="#az"/><use transform="matrix(0.14814814814814817,0,0,0.14814814814814817,29.629629629629633,0)" xlink:href="#aB"/><use transform="matrix(0.14814814814814817,0,0,0.14814814814814817,59.25925925925927,0)" xlink:href="#an"/><use transform="matrix(0.14814814814814817,0,0,0.14814814814814817,85.92592592592594,0)" xlink:href="#aE"/><use transform="matrix(0.14814814814814817,0,0,0.14814814814814817,100.74074074074075,0)" xlink:href="#aD"/><use transform="matrix(0.14814814814814817,0,0,0.14814814814814817,130.37037037037038,0)" xlink:href="#aJ"/></g><path fill="#333" d="M0 4l72-265h28L28 4H0" id="aO"/><g id="F"><use transform="matrix(0.14814814814814817,0,0,0.14814814814814817,0,0)" xlink:href="#aL"/><use transform="matrix(0.14814814814814817,0,0,0.14814814814814817,29.629629629629633,0)" xlink:href="#aD"/><use transform="matrix(0.14814814814814817,0,0,0.14814814814814817,59.25925925925927,0)" xlink:href="#ay"/><use transform="matrix(0.14814814814814817,0,0,0.14814814814814817,76.8888888888889,0)" xlink:href="#ay"/><use transform="matrix(0.14814814814814817,0,0,0.14814814814814817,94.51851851851853,0)" xlink:href="#P"/><use transform="matrix(0.14814814814814817,0,0,0.14814814814814817,106.22222222222224,0)" xlink:href="#aB"/><use transform="matrix(0.14814814814814817,0,0,0.14814814814814817,135.85185185185188,0)" xlink:href="#aO"/><use transform="matrix(0.14814814814814817,0,0,0.14814814814814817,150.66666666666669,0)" xlink:href="#ax"/><use transform="matrix(0.14814814814814817,0,0,0.14814814814814817,177.33333333333334,0)" xlink:href="#aB"/><use transform="matrix(0.14814814814814817,0,0,0.14814814814814817,206.962962962963,0)" xlink:href="#aJ"/><use transform="matrix(0.14814814814814817,0,0,0.14814814814814817,218.66666666666669,0)" xlink:href="#aB"/><use transform="matrix(0.14814814814814817,0,0,0.14814814814814817,248.2962962962963,0)" xlink:href="#R"/><use transform="matrix(0.14814814814814817,0,0,0.14814814814814817,277.9259259259259,0)" xlink:href="#P"/><use transform="matrix(0.14814814814814817,0,0,0.14814814814814817,289.6296296296296,0)" xlink:href="#aD"/></g></defs></g></svg>